HIERARCHY
ROOT Hips
{
 OFFSET 0.000000 0.000000 0.000000
 CHANNELS 6 Xposition Yposition Zposition Yrotation Xrotation Zrotation
 JOINT Chest
 {
  OFFSET 0.000000 9.585900 0.002600
  CHANNELS 3 Yrotation Xrotation Zrotation
  JOINT Chest2
  {
   OFFSET 0.000000 9.601200 -0.005300
   CHANNELS 3 Yrotation Xrotation Zrotation
   JOINT Chest3
   {
    OFFSET 0.000000 9.561800 0.000000
    CHANNELS 3 Yrotation Xrotation Zrotation
    JOINT Chest4
    {
     OFFSET 0.000000 9.552100 0.000000
     CHANNELS 3 Yrotation Xrotation Zrotation
     JOINT Neck
     {
      OFFSET 0.000000 14.453000 0.000000
      CHANNELS 3 Yrotation Xrotation Zrotation
      JOINT Head
      {
       OFFSET 0.000000 8.936500 -0.011300
       CHANNELS 3 Yrotation Xrotation Zrotation
       End Site
       {
        OFFSET 0.000000 17.073600 -0.006000
       }
      }
     }
     JOINT RightCollar
     {
      OFFSET -2.921100 9.558500 0.000000
      CHANNELS 3 Yrotation Xrotation Zrotation
      JOINT RightShoulder
      {
       OFFSET -13.519700 0.000000 0.000000
       CHANNELS 3 Yrotation Xrotation Zrotation
       JOINT RightElbow
       {
        OFFSET 0.000000 -29.696600 0.000000
        CHANNELS 3 Yrotation Xrotation Zrotation
        JOINT RightWrist
        {
         OFFSET 0.000000 -24.004700 0.000000
         CHANNELS 3 Yrotation Xrotation Zrotation
         End Site
         {
          OFFSET 0.000000 -17.728500 0.000000
         }
        }
       }
      }
     }
     JOINT LeftCollar
     {
      OFFSET 2.921100 9.558500 0.000000
      CHANNELS 3 Yrotation Xrotation Zrotation
      JOINT LeftShoulder
      {
       OFFSET 13.519700 0.000000 0.000000
       CHANNELS 3 Yrotation Xrotation Zrotation
       JOINT LeftElbow
       {
        OFFSET 0.000000 -29.696600 0.000000
        CHANNELS 3 Yrotation Xrotation Zrotation
        JOINT LeftWrist
        {
         OFFSET 0.000000 -24.004700 0.000000
         CHANNELS 3 Yrotation Xrotation Zrotation
         End Site
         {
          OFFSET 0.000000 -17.728500 0.000000
         }
        }
       }
      }
     }
    }
   }
  }
 }
 JOINT RightHip
 {
  OFFSET -7.771700 -0.012900 -0.001300
  CHANNELS 3 Yrotation Xrotation Zrotation
  JOINT RightKnee
  {
   OFFSET 0.000000 -40.869800 0.001200
   CHANNELS 3 Yrotation Xrotation Zrotation
   JOINT RightAnkle
   {
    OFFSET 0.000000 -39.717900 0.002100
    CHANNELS 3 Yrotation Xrotation Zrotation
    JOINT RightToe
    {
     OFFSET 0.000000 -4.965400 11.033500
     CHANNELS 3 Yrotation Xrotation Zrotation
     End Site
     {
      OFFSET 0.000000 -1.423100 5.872300
     }
    }
   }
  }
 }
 JOINT LeftHip
 {
  OFFSET 7.771700 -0.012900 -0.001300
  CHANNELS 3 Yrotation Xrotation Zrotation
  JOINT LeftKnee
  {
   OFFSET 0.000000 -40.869800 0.001200
   CHANNELS 3 Yrotation Xrotation Zrotation
   JOINT LeftAnkle
   {
    OFFSET 0.000000 -39.717900 0.002100
    CHANNELS 3 Yrotation Xrotation Zrotation
    JOINT LeftToe
    {
     OFFSET 0.000000 -4.965400 11.033500
     CHANNELS 3 Yrotation Xrotation Zrotation
     End Site
     {
      OFFSET 0.000000 -1.423100 5.872300
     }
    }
   }
  }
 }
}
MOTION
Frames: 15
Frame Time: 0.008333
0.000000 85.388000 0.000000 0.000000 -5.767877 0.000000 0.000000 11.653817 0.000000 0.000000 -5.885947 0.000000 0.000000 -0.000000 0.000000 0.000000 -0.000000 0.000000 0.000000 12.528835 0.000000 0.000000 0.711642 0.000000 0.000000 -0.000000 0.000000 0.000000 0.000000 -90.000000 0.000000 -2.309062 0.000000 0.000000 2.309062 0.000000 0.000000 -0.000000 0.000000 0.000000 -0.000000 90.000000 0.000000 -2.309062 0.000000 0.000000 2.309062 0.000000 0.000000 8.520406 0.000000 0.000000 1.905762 0.000000 -0.000000 -4.658285 0.000000 0.000000 -0.000000 0.000000 0.000000 8.520406 0.000000 0.000000 1.905762 0.000000 -0.000000 -4.658285 0.000000 0.000000 -0.000000 0.000000
28.860134 49.849737 63.776761 173.138246 -29.575229 -6.547394 7.745902 18.315055 6.925788 0.867038 2.374056 0.603751 1.434444 3.884348 1.008604 6.504247 15.846566 4.899185 -2.484320 17.787019 2.127516 -5.276951 -2.618591 4.737793 -0.744171 -5.045237 -7.769294 0.862568 -8.102253 -20.762535 -140.527997 -51.301068 150.319034 -9.925419 -11.365496 47.993222 -13.199899 -3.330062 0.535138 -0.169284 -22.253582 6.760697 129.278612 -60.576016 -147.737377 37.771239 5.455938 -50.907453 -1.005871 -50.890775 9.539893 -117.836174 81.815541 -105.461947 0.680018 -13.953724 -4.391266 -0.204285 1.166157 -0.070064 -9.709732 -54.807445 16.755874 -156.599202 80.487810 -163.979664 1.727277 -18.175755 7.826204 -0.323005 -0.447071 -0.125334
28.870141 49.845562 63.768041 173.161986 -29.602852 -6.544549 7.721402 18.502447 6.911239 0.872990 2.417149 0.606159 1.443406 3.951712 1.012261 6.491984 15.985299 4.881505 -2.495165 17.776096 2.159334 -5.307979 -2.636007 4.800476 -0.663587 -5.001668 -7.768093 0.864574 -8.496117 -20.859239 -140.400376 -50.620222 150.323142 -10.158437 -11.435631 47.306406 -13.398264 -3.273640 0.558196 -0.077839 -22.839235 6.776048 129.007153 -59.497001 -148.075794 38.526468 5.189046 -50.095292 -0.999876 -50.874019 9.545819 -117.992231 81.795448 -105.622521 0.646448 -13.961909 -4.395564 -0.190951 1.154274 -0.055375 -9.718910 -54.782601 16.785568 -156.389908 80.458431 -163.810783 1.709619 -18.166881 7.848949 -0.314792 -0.461708 -0.117554
28.872531 49.843504 63.750662 173.213491 -29.675682 -6.493883 7.661377 18.761272 6.845438 0.879825 2.467860 0.610562 1.453555 4.030756 1.018974 6.477452 16.144548 4.871121 -2.520180 17.745077 2.176573 -5.361401 -2.690833 4.842141 -0.577874 -4.952725 -7.771790 0.849788 -8.898106 -20.908207 -140.316710 -49.957428 150.362154 -10.380906 -11.481191 46.626031 -13.593400 -3.211902 0.578058 0.021944 -23.426530 6.780425 128.951460 -58.431981 -148.568176 39.289303 4.879589 -49.148464 -0.941441 -50.806657 9.445079 -118.305011 81.799413 -105.952024 0.617031 -13.957449 -4.405758 -0.197371 1.116913 -0.035244 -9.639114 -54.714421 16.678936 -156.350735 80.441818 -163.808542 1.649972 -18.165793 7.862862 -0.281066 -0.470829 -0.093893
28.883085 49.838906 63.740321 173.226420 -29.717224 -6.472067 7.649065 18.995855 6.831827 0.887102 2.526360 0.616898 1.464235 4.121864 1.028809 6.458131 16.324532 4.867659 -2.561177 17.689962 2.177791 -5.440327 -2.790485 4.860984 -0.485233 -4.893168 -7.783856 0.813829 -9.320544 -20.905804 -140.245440 -49.317096 150.412094 -10.606454 -11.502952 45.979220 -13.786070 -3.144470 0.591503 0.131615 -24.014883 6.780101 129.084346 -57.405972 -149.193378 40.083114 4.522160 -48.049792 -0.915322 -50.772334 9.421788 -118.460697 81.785780 -106.114858 0.625008 -13.971573 -4.413163 -0.200753 1.118545 -0.046098 -9.609075 -54.675596 16.661784 -156.268163 80.422215 -163.750028 1.625789 -18.168566 7.878515 -0.294792 -0.476772 -0.096757
28.899632 49.838125 63.726118 173.267852 -29.797838 -6.495716 7.634811 19.284652 6.864093 0.894529 2.592641 0.625105 1.475115 4.224973 1.041653 6.432949 16.524463 4.870429 -2.616922 17.599574 2.159439 -5.541895 -2.955842 4.850789 -0.392901 -4.813788 -7.805219 0.762961 -9.780303 -20.845358 -140.173552 -48.709386 150.462361 -10.840781 -11.511672 45.383985 -13.974952 -3.072159 0.596021 0.252010 -24.600827 6.776559 129.346357 -56.430753 -149.903734 40.923602 4.111161 -46.829352 -0.953782 -50.694838 9.468109 -118.568161 81.752445 -106.235424 0.613676 -13.958932 -4.420532 -0.194358 1.084446 -0.039808 -9.688258 -54.588127 16.775043 -155.906376 80.373840 -163.464808 1.578213 -18.144817 7.887110 -0.271508 -0.508293 -0.074025
28.913001 49.834349 63.718329 173.310802 -29.843729 -6.507631 7.616564 19.556848 6.885301 0.902119 2.666603 0.634824 1.486197 4.339775 1.056858 6.402582 16.743055 4.877070 -2.681392 17.455971 2.121297 -5.656070 -3.220514 4.810284 -0.309087 -4.712707 -7.830264 0.704193 -10.284869 -20.721534 -140.096209 -48.145754 150.505039 -11.077918 -11.524430 44.856846 -14.156601 -3.001061 0.590267 0.376827 -25.173567 6.770067 129.692431 -55.494804 -150.648034 41.804713 3.654966 -45.572687 -0.999878 -50.649488 9.521779 -118.587182 81.704783 -106.281242 0.573902 -13.979277 -4.425007 -0.156740 1.083793 -0.025820 -9.716862 -54.543438 16.788354 -155.772000 80.352449 -163.351565 1.587784 -18.149977 7.882268 -0.282193 -0.509528 -0.066991
28.924212 49.829593 63.714582 173.332427 -29.878386 -6.503838 7.619144 19.833585 6.905783 0.910373 2.748226 0.645501 1.498282 4.466053 1.073552 6.370289 16.978698 4.884365 -2.749047 17.243171 2.070534 -5.775946 -3.614120 4.751935 -0.240340 -4.595547 -7.848956 0.651051 -10.833352 -20.533289 -140.021084 -47.636827 150.531203 -11.313732 -11.544805 44.425417 -14.332282 -2.939275 0.573467 0.496518 -25.727802 6.753420 130.092996 -54.597754 -151.387838 42.679133 3.167063 -44.396512 -0.999784 -50.614184 9.511002 -118.649196 81.693196 -106.345225 0.600412 -13.993679 -4.421470 -0.180035 1.089992 -0.046133 -9.727166 -54.513259 16.792459 -155.651800 80.334978 -163.249346 1.594686 -18.150738 7.880086 -0.284702 -0.511469 -0.066145
28.936773 49.827591 63.710034 173.381886 -29.936789 -6.528878 7.611200 20.149515 6.949555 0.920506 2.836778 0.656780 1.513291 4.602713 1.091181 6.343860 17.226931 4.891267 -2.819715 16.964737 2.020762 -5.905577 -4.129239 4.700846 -0.196587 -4.466389 -7.849447 0.619811 -11.419363 -20.278218 -139.962002 -47.196155 150.535752 -11.544328 -11.565180 44.116513 -14.506298 -2.890965 0.547954 0.603719 -26.260528 6.709326 130.482501 -53.744191 -152.077057 43.482930 2.702845 -43.391413 -1.046804 -50.550342 9.538361 -118.672985 81.675025 -106.378125 0.610425 -13.992340 -4.425118 -0.190408 1.078539 -0.051501 -9.867301 -54.446612 16.900439 -155.415102 80.306114 -163.091042 1.601307 -18.126954 7.882405 -0.267851 -0.535965 -0.068377
28.943135 49.831881 63.696084 173.456599 -30.070263 -6.532728 7.582672 20.553440 6.967353 0.933672 2.931071 0.668542 1.533084 4.747934 1.109531 6.331046 17.482066 4.898478 -2.893593 16.644807 1.983677 -6.048175 -4.720285 4.677523 -0.182006 -4.330685 -7.821269 0.621677 -12.026638 -19.956973 -139.932292 -46.846015 150.514228 -11.758820 -11.577745 43.940926 -14.679986 -2.856422 0.515229 0.690236 -26.766812 6.629829 130.743462 -52.922015 -152.625062 44.185299 2.378178 -42.598202 -1.048491 -50.404933 9.501556 -118.807858 81.661679 -106.521158 0.596002 -14.013592 -4.412478 -0.190459 1.069453 -0.058618 -9.896231 -54.307523 16.857658 -155.233718 80.288307 -162.948881 1.635574 -18.108077 7.872116 -0.267742 -0.563008 -0.070993
28.950106 49.834294 63.689871 173.478793 -30.176930 -6.530745 7.598585 20.921369 6.997744 0.950041 3.029946 0.680733 1.557915 4.899792 1.128556 6.333519 17.739901 4.906690 -2.966795 16.317075 1.962968 -6.196123 -5.324594 4.685507 -0.190091 -4.189443 -7.763460 0.665596 -12.638655 -19.581666 -139.936185 -46.600533 150.454416 -11.939696 -11.576581 43.879339 -14.856492 -2.828256 0.466016 0.749655 -27.249402 6.532714 130.782719 -52.127098 -152.945259 44.767047 2.248902 -42.012619 -1.025407 -50.290844 9.479990 -118.842446 81.662742 -106.553687 0.606554 -14.028801 -4.403080 -0.208844 1.075506 -0.072265 -9.912331 -54.197644 16.843173 -155.109978 80.275335 -162.851663 1.681595 -18.099445 7.850329 -0.269035 -0.580253 -0.074051
28.955324 49.837568 63.685444 173.484242 -30.289676 -6.523653 7.625373 21.282102 7.029021 0.968477 3.131060 0.693203 1.585956 5.054608 1.148076 6.346480 17.994931 4.916609 -3.035370 16.014439 1.954474 -6.338934 -5.881721 4.713612 -0.209507 -4.028190 -7.681954 0.758229 -13.244787 -19.168096 -139.969737 -46.453241 150.340195 -12.064286 -11.555964 43.882926 -15.037704 -2.794005 0.380658 0.775931 -27.713767 6.447328 130.613890 -51.381311 -153.040759 45.205798 2.253748 -41.576970 -0.982810 -50.171330 9.458946 -118.842272 81.667050 -106.548961 0.613153 -14.050858 -4.388992 -0.225479 1.092089 -0.085080 -9.898458 -54.081925 16.813928 -155.150466 80.274236 -162.895661 1.669203 -18.098363 7.829267 -0.267748 -0.591696 -0.087564
28.958322 49.841951 63.681723 173.483838 -30.411851 -6.513616 7.657027 21.631152 7.064389 0.987179 3.231496 0.705935 1.614494 5.207895 1.167994 6.362519 18.241142 4.929159 -3.096974 15.755025 1.949471 -6.468003 -6.358896 4.743592 -0.228214 -3.833284 -7.579308 0.898851 -13.833303 -18.728017 -140.037469 -46.400059 150.177782 -12.113807 -11.513873 43.869219 -15.213749 -2.731281 0.247059 0.755252 -28.175315 6.392024 130.346111 -50.716407 -152.987016 45.517263 2.312332 -41.214290 -0.934120 -50.044213 9.438790 -118.842087 81.676836 -106.548782 0.612814 -14.067936 -4.363907 -0.240042 1.105287 -0.101091 -9.851492 -53.957112 16.761592 -155.217254 80.279420 -162.961651 1.678561 -18.105786 7.806228 -0.271381 -0.594908 -0.085593
28.961269 49.847793 63.678175 173.485970 -30.545773 -6.516658 7.695471 21.962836 7.118686 1.005283 3.328762 0.718877 1.642137 5.355927 1.188277 6.378906 18.473338 4.945031 -3.148136 15.542181 1.942969 -6.574538 -6.750450 4.764452 -0.239344 -3.600253 -7.448225 1.083651 -14.398393 -18.270965 -140.160571 -46.458266 149.991005 -12.094369 -11.458551 43.758212 -15.379156 -2.603702 0.081151 0.687176 -28.660895 6.356074 130.108689 -50.164525 -152.867593 45.765284 2.386580 -40.869118 -0.890789 -49.899278 9.440142 -118.757968 81.686988 -106.466803 0.600415 -14.094942 -4.327698 -0.245288 1.130697 -0.116009 -9.812588 -53.820105 16.719581 -155.318263 80.286601 -163.056742 1.680499 -18.108753 7.788542 -0.273718 -0.601961 -0.088493
28.965077 49.855372 63.673926 173.478025 -30.696258 -6.529459 7.755320 22.278263 7.191167 1.023540 3.420632 0.731775 1.670058 5.495356 1.208592 6.401210 18.685950 4.964502 -3.188484 15.372187 1.936579 -6.658518 -7.063276 4.779049 -0.247124 -3.328618 -7.274733 1.303161 -14.943340 -17.805468 -140.350507 -46.646872 149.788255 -12.030590 -11.401437 43.520470 -15.547886 -2.387348 -0.081921 0.592008 -29.182107 6.308581 129.971055 -49.752533 -152.733533 45.998561 2.455754 -40.511817 -0.850409 -49.733880 9.472199 -118.580429 81.692671 -106.295434 0.580653 -14.127402 -4.288765 -0.247518 1.165444 -0.125675 -9.749596 -53.661140 16.658043 -155.930461 80.324515 -163.619498 1.597093 -18.138089 7.752745 -0.267528 -0.582363 -0.086989
